#!OML:ASF F:\VICON\USERDATA\Patient Classification 1\PLAYGROUND\JustinFriday\JustinFriday.ASF
:FULLY-SPECIFIED
:DEGREES
3896
root 15.8602 18.1379 54.5509 -719.778 -187.085 7.98597
lowerback -1.17094 6.84619 1.87082
upperback 9.65052 9.93064 5.27419
thorax 10.2939 5.21429 5.65954
lowerneck 5.5424 -3.46359 -6.80309
upperneck -7.44823 -5.21171 1.64089
head -3.16396 -2.50846 1.9591
rclavicle 8.01102e-014 2.14687e-014
rhumerus -9.04616 3.51117 -80.9392
rradius 36.8374
rwrist -12.4885
rhand -17.6485 -23.3492
rfingers 7.12502
rthumb 8.60959 -413.154
lclavicle 8.01102e-014 2.14687e-014
lhumerus -30.8441 -0.718432 87.2075
lradius 49.135
lwrist -0.604681
lhand -14.3635 -11.7782
lfingers 7.12502
lthumb 11.7786 17.8706
rfemur -6.7594 5.66306 28.5079
rtibia 26.2606
rfoot -14.2929 0.804782
rtoes 16.1222
lfemur -11.244 6.58329 -7.53407
ltibia 30.9555
lfoot -16.3676 0.83164
ltoes -1.05206
3897
root 15.8271 18.1449 54.549 -719.39 -187.013 8.41598
lowerback -1.40468 6.97222 2.13182
upperback 9.55183 10.0651 5.44367
thorax 10.3278 5.29027 5.74132
lowerneck 5.63232 -3.58964 -6.45968
upperneck -7.23475 -5.36967 1.36779
head -3.1136 -2.58807 1.81044
rclavicle 3.16068e-014 -2.70347e-014
rhumerus -9.51013 2.84708 -80.7077
rradius 37.2202
rwrist -12.6496
rhand -15.2762 -23.7747
rfingers 7.12502
rthumb 10.8983 -413.472
lclavicle 3.16068e-014 -2.70347e-014
lhumerus -30.822 -1.1002 87.2499
lradius 48.3112
lwrist -0.660809
lhand -12.1901 -13.3486
lfingers 7.12502
lthumb 13.8738 16.1686
rfemur -7.15565 5.82935 28.8471
rtibia 26.2925
rfoot -15.5548 -0.974651
rtoes 4.97997
lfemur -11.6616 6.79424 -7.20955
ltibia 30.9593
lfoot -16.6622 0.947435
ltoes -2.30806
3898
root 15.7975 18.1472 54.5427 -719.246 -187.198 8.71519
lowerback -1.5548 7.14207 2.23181
upperback 9.58068 10.2907 5.59124
thorax 10.4264 5.40373 5.89827
lowerneck 5.74066 -3.70262 -5.99349
upperneck -7.03676 -5.51427 0.946128
head -3.08083 -2.65894 1.59324
rclavicle -1.41137e-014 4.45278e-014
rhumerus -10.1856 2.01715 -80.4489
rradius 37.8481
rwrist -13.0572
rhand -15.701 -22.2406
rfingers 7.12502
rthumb 10.4886 -411.959
lclavicle -1.41137e-014 4.45278e-014
lhumerus -30.8066 -1.50203 87.2721
lradius 47.5059
lwrist -0.539213
lhand -11.9641 -13.3471
lfingers 7.12502
lthumb 14.0916 16.1551
rfemur -7.23273 6.1343 29.0747
rtibia 26.2626
rfoot -14.3762 0.399064
rtoes 15.358
lfemur -11.7503 7.16134 -6.9755
ltibia 31.0331
lfoot -16.5486 0.890319
ltoes -3.13711
3899
root 15.7806 18.1405 54.5356 -719.621 -188.054 8.34959
lowerback -1.2346 7.54206 1.45995
upperback 9.79497 10.9244 5.65506
thorax 10.2787 5.66614 6.38807
lowerneck 5.97795 -3.79195 -5.55292
upperneck -7.05297 -5.64347 0.539122
head -3.14806 -2.71822 1.39632
rclavicle -5.12864e-014 7.95139e-016
rhumerus -10.1892 1.45966 -80.2237
rradius 37.6559
rwrist -12.9627
rhand -17.3894 -21.3768
rfingers 7.12502
rthumb 8.85955 -411.171
lclavicle -5.12864e-014 7.95139e-016
lhumerus -30.7936 -1.89256 87.3076
lradius 46.6588
lwrist -0.527685
lhand -11.5102 -13.7865
lfingers 7.12502
lthumb 14.5289 15.6847
rfemur -6.80696 6.7523 28.6607
rtibia 26.2269
rfoot -16.097 -1.2802
rtoes 2.21405
lfemur -11.1257 7.78831 -7.37118
ltibia 31.1156
lfoot -16.4682 0.850241
ltoes -1.45835
3900
root 15.7373 18.1431 54.5339 -719.442 -187.71 8.01218
lowerback -1.33003 7.57044 1.09537
upperback 9.7579 10.9713 5.60921
thorax 10.2301 5.65549 6.54122
lowerneck 6.51357 -3.79101 -5.23629
upperneck -7.56887 -5.68802 0.257729
head -3.44448 -2.7271 1.28154
rclavicle -1.74931e-014 3.89618e-014
rhumerus -10.51 0.949272 -79.9949
rradius 37.8761
rwrist -13.1551
rhand -17.4335 -21.2546
rfingers 7.12502
rthumb 8.81707 -411.05
lclavicle -1.74931e-014 3.89618e-014
lhumerus -30.7436 -2.15379 87.3061
lradius 45.7584
lwrist -0.725657
lhand -12.626 -12.3323
lfingers 7.12502
lthumb 13.4537 17.2132
rfemur -7.10058 6.34376 28.0695
rtibia 26.1964
rfoot -14.3326 0.463029
rtoes 12.656
lfemur -11.5581 7.38103 -8.00425
ltibia 31.1991
lfoot -16.1252 0.536362
ltoes 1.90101
3901
root 15.6958 18.138 54.5338 -719.192 -187.291 8.12438
lowerback -1.41185 7.5498 1.18001
upperback 9.67675 10.9284 5.66827
thorax 10.1945 5.63846 6.55911
lowerneck 6.92908 -3.6864 -5.04495
upperneck -7.68963 -5.56566 0.108595
head -3.58054 -2.65915 1.21014
rclavicle 1.44715e-013 -7.55382e-014
rhumerus -10.9544 0.455879 -79.7736
rradius 38.2203
rwrist -13.4248
rhand -15.5353 -21.331
rfingers 7.12502
rthumb 10.6484 -411.041
lclavicle 1.44715e-013 -7.55382e-014
lhumerus -30.7239 -2.2691 87.2655
lradius 44.8893
lwrist -0.989436
lhand -13.2766 -11.263
lfingers 7.12502
lthumb 12.8266 18.3229
rfemur -7.35676 6.21836 28.042
rtibia 26.1927
rfoot -15.884 -1.35891
rtoes 2.46392
lfemur -11.9907 7.1971 -8.0697
ltibia 31.2698
lfoot -16.2366 0.666679
ltoes 1.15835
3902
root 15.6607 18.1359 54.5318 -719.047 -187.092 8.38322
lowerback -1.35037 7.57278 1.34359
upperback 9.61322 10.9527 5.7756
thorax 10.0934 5.66728 6.56773
lowerneck 6.2668 -4.1258 -4.88109
upperneck -6.75518 -6.05904 0.155309
head -3.11573 -2.9282 1.17345
rclavicle -1.51076e-013 2.38542e-015
rhumerus -11.4518 0.387983 -79.6018
rradius 38.5712
rwrist -13.4956
rhand -12.4988 -22.6982
rfingers 7.12502
rthumb 13.5763 -412.236
lclavicle -1.51076e-013 2.38542e-015
lhumerus -30.7458 -2.32725 87.1896
lradius 44.0222
lwrist -1.14835
lhand -13.7328 -10.3486
lfingers 7.12502
lthumb 12.3867 19.2645
rfemur -7.4277 6.41105 28.2393
rtibia 26.1158
rfoot -14.4656 -0.069686
rtoes 14.2437
lfemur -12.2129 7.2826 -7.89727
ltibia 31.3622
lfoot -16.2968 0.535026
ltoes 0.703772
